<mxfile host="65bd71144e">
    <diagram id="ChIhPoUCa-KplMuL6Zst" name="第 1 页">
        <mxGraphModel dx="1618" dy="860" grid="1" gridSize="10" guides="1" tooltips="1" connect="1" arrows="1" fold="1" page="1" pageScale="1" pageWidth="1169" pageHeight="827" math="0" shadow="0">
            <root>
                <mxCell id="0"/>
                <mxCell id="1" parent="0"/>
                <mxCell id="4" style="edgeStyle=none;html=1;fontSize=16;" parent="1" source="2" target="3" edge="1">
                    <mxGeometry relative="1" as="geometry"/>
                </mxCell>
                <mxCell id="2" value="Project object" style="text;html=1;strokeColor=none;fillColor=none;align=center;verticalAlign=middle;whiteSpace=wrap;rounded=0;fontSize=16;" parent="1" vertex="1">
                    <mxGeometry x="50" y="240" width="140" height="40" as="geometry"/>
                </mxCell>
                <mxCell id="67" style="edgeStyle=none;html=1;entryX=0;entryY=0.5;entryDx=0;entryDy=0;fontSize=16;" parent="1" source="3" target="66" edge="1">
                    <mxGeometry relative="1" as="geometry"/>
                </mxCell>
                <mxCell id="71" style="edgeStyle=none;html=1;entryX=0;entryY=0.5;entryDx=0;entryDy=0;fontSize=16;" parent="1" source="139" target="69" edge="1">
                    <mxGeometry relative="1" as="geometry">
                        <mxPoint x="352.98" y="331" as="sourcePoint"/>
                    </mxGeometry>
                </mxCell>
                <mxCell id="133" style="edgeStyle=none;html=1;exitX=0.5;exitY=1;exitDx=0;exitDy=0;entryX=0;entryY=0;entryDx=0;entryDy=0;fontSize=16;" parent="1" source="3" target="132" edge="1">
                    <mxGeometry relative="1" as="geometry"/>
                </mxCell>
                <mxCell id="141" style="edgeStyle=none;html=1;exitX=0.75;exitY=1;exitDx=0;exitDy=0;entryX=0.25;entryY=0;entryDx=0;entryDy=0;fontSize=15;fontColor=#000000;" parent="1" source="3" target="139" edge="1">
                    <mxGeometry relative="1" as="geometry"/>
                </mxCell>
                <mxCell id="3" value="PBXProject" style="text;html=1;strokeColor=none;fillColor=none;align=center;verticalAlign=middle;whiteSpace=wrap;rounded=0;fontSize=16;" parent="1" vertex="1">
                    <mxGeometry x="220" y="240" width="140" height="40" as="geometry"/>
                </mxCell>
                <mxCell id="112" style="edgeStyle=none;html=1;entryX=0;entryY=0.5;entryDx=0;entryDy=0;fontSize=15;exitX=1;exitY=0.25;exitDx=0;exitDy=0;" parent="1" source="114" target="111" edge="1">
                    <mxGeometry relative="1" as="geometry">
                        <mxPoint x="604" y="180" as="sourcePoint"/>
                    </mxGeometry>
                </mxCell>
                <mxCell id="115" style="edgeStyle=none;html=1;exitX=1;exitY=0.5;exitDx=0;exitDy=0;fontSize=15;" parent="1" source="66" target="114" edge="1">
                    <mxGeometry relative="1" as="geometry"/>
                </mxCell>
                <mxCell id="66" value="PBXGroup" style="text;html=1;strokeColor=none;fillColor=none;align=center;verticalAlign=middle;whiteSpace=wrap;rounded=0;fontSize=16;" parent="1" vertex="1">
                    <mxGeometry x="420" y="170" width="120" height="40" as="geometry"/>
                </mxCell>
                <mxCell id="68" value="mainGroup" style="text;html=1;align=center;verticalAlign=middle;resizable=0;points=[];autosize=1;strokeColor=none;fontSize=16;" parent="1" vertex="1">
                    <mxGeometry x="300" y="190" width="90" height="20" as="geometry"/>
                </mxCell>
                <mxCell id="96" style="edgeStyle=none;html=1;exitX=1;exitY=0.5;exitDx=0;exitDy=0;entryX=0;entryY=0.5;entryDx=0;entryDy=0;fontSize=16;" parent="1" source="69" target="92" edge="1">
                    <mxGeometry relative="1" as="geometry"/>
                </mxCell>
                <mxCell id="99" style="edgeStyle=none;html=1;exitX=0.5;exitY=1;exitDx=0;exitDy=0;entryX=0;entryY=0.5;entryDx=0;entryDy=0;fontSize=16;" parent="1" source="69" target="97" edge="1">
                    <mxGeometry relative="1" as="geometry"/>
                </mxCell>
                <mxCell id="106" style="edgeStyle=none;html=1;exitX=0.5;exitY=1;exitDx=0;exitDy=0;entryX=0;entryY=0.5;entryDx=0;entryDy=0;fontSize=16;" parent="1" source="69" target="105" edge="1">
                    <mxGeometry relative="1" as="geometry"/>
                </mxCell>
                <mxCell id="69" value="&lt;p class=&quot;p1&quot; style=&quot;margin: 0px; font-stretch: normal; font-size: 16px; line-height: normal; font-family: &amp;quot;helvetica neue&amp;quot;;&quot;&gt;PBXNativeTarget&lt;/p&gt;" style="text;html=1;strokeColor=none;fillColor=none;align=center;verticalAlign=middle;whiteSpace=wrap;rounded=0;fontSize=16;" parent="1" vertex="1">
                    <mxGeometry x="420" y="390" width="140" height="40" as="geometry"/>
                </mxCell>
                <mxCell id="83" style="edgeStyle=none;html=1;exitX=1;exitY=0.5;exitDx=0;exitDy=0;entryX=0;entryY=0.5;entryDx=0;entryDy=0;fontSize=16;" parent="1" source="73" target="81" edge="1">
                    <mxGeometry relative="1" as="geometry"/>
                </mxCell>
                <mxCell id="73" value="&lt;p class=&quot;p1&quot; style=&quot;margin: 0px; font-stretch: normal; font-size: 16px; line-height: normal; font-family: &amp;quot;helvetica neue&amp;quot;;&quot;&gt;PBXSourcesBuildPhase&lt;/p&gt;" style="text;html=1;strokeColor=none;fillColor=none;align=center;verticalAlign=middle;whiteSpace=wrap;rounded=0;fontSize=16;" parent="1" vertex="1">
                    <mxGeometry x="755" y="350" width="180" height="40" as="geometry"/>
                </mxCell>
                <mxCell id="124" style="edgeStyle=none;html=1;exitX=1;exitY=0.5;exitDx=0;exitDy=0;fontSize=16;" parent="1" source="74" target="123" edge="1">
                    <mxGeometry relative="1" as="geometry"/>
                </mxCell>
                <mxCell id="74" value="&lt;p class=&quot;p1&quot; style=&quot;margin: 0px; font-stretch: normal; font-size: 16px; line-height: normal; font-family: &amp;quot;helvetica neue&amp;quot;;&quot;&gt;PBXFrameworksBuildPhase&lt;/p&gt;" style="text;html=1;strokeColor=none;fillColor=none;align=center;verticalAlign=middle;whiteSpace=wrap;rounded=0;fontSize=16;" parent="1" vertex="1">
                    <mxGeometry x="755" y="400" width="210" height="40" as="geometry"/>
                </mxCell>
                <mxCell id="89" style="edgeStyle=none;html=1;exitX=1;exitY=0.5;exitDx=0;exitDy=0;entryX=0;entryY=0.5;entryDx=0;entryDy=0;fontSize=16;" parent="1" source="75" target="88" edge="1">
                    <mxGeometry relative="1" as="geometry"/>
                </mxCell>
                <mxCell id="75" value="&lt;p class=&quot;p1&quot; style=&quot;margin: 0px; font-stretch: normal; font-size: 16px; line-height: normal; font-family: &amp;quot;helvetica neue&amp;quot;;&quot;&gt;PBXResourcesBuildPhase&lt;/p&gt;" style="text;html=1;strokeColor=none;fillColor=none;align=center;verticalAlign=middle;whiteSpace=wrap;rounded=0;fontSize=16;" parent="1" vertex="1">
                    <mxGeometry x="745" y="464" width="210" height="40" as="geometry"/>
                </mxCell>
                <mxCell id="80" value="&lt;p class=&quot;p1&quot; style=&quot;margin: 0px ; font-stretch: normal ; font-size: 14px ; line-height: normal ; font-family: &amp;#34;helvetica neue&amp;#34;&quot;&gt;&lt;br&gt;&lt;/p&gt;" style="text;html=1;align=center;verticalAlign=middle;resizable=0;points=[];autosize=1;strokeColor=none;fontSize=14;" parent="1" vertex="1">
                    <mxGeometry x="605" y="400" width="20" height="20" as="geometry"/>
                </mxCell>
                <mxCell id="84" style="edgeStyle=none;html=1;exitX=1;exitY=0.5;exitDx=0;exitDy=0;entryX=0;entryY=0.5;entryDx=0;entryDy=0;fontSize=16;" parent="1" source="81" target="82" edge="1">
                    <mxGeometry relative="1" as="geometry"/>
                </mxCell>
                <mxCell id="81" value="&lt;p class=&quot;p1&quot; style=&quot;margin: 0px; font-stretch: normal; font-size: 16px; line-height: normal; font-family: &amp;quot;helvetica neue&amp;quot;;&quot;&gt;PBXBuildFile&lt;/p&gt;" style="text;html=1;strokeColor=none;fillColor=none;align=center;verticalAlign=middle;whiteSpace=wrap;rounded=0;fontSize=16;" parent="1" vertex="1">
                    <mxGeometry x="985" y="350" width="180" height="40" as="geometry"/>
                </mxCell>
                <mxCell id="82" value="&lt;p class=&quot;p1&quot; style=&quot;margin: 0px; font-stretch: normal; font-size: 16px; line-height: normal; font-family: &amp;quot;helvetica neue&amp;quot;;&quot;&gt;PBXFileReference&lt;/p&gt;" style="text;html=1;strokeColor=none;fillColor=none;align=center;verticalAlign=middle;whiteSpace=wrap;rounded=0;fontSize=16;" parent="1" vertex="1">
                    <mxGeometry x="1195" y="350" width="180" height="40" as="geometry"/>
                </mxCell>
                <mxCell id="85" value="files" style="text;html=1;align=center;verticalAlign=middle;resizable=0;points=[];autosize=1;strokeColor=none;fontSize=16;" parent="1" vertex="1">
                    <mxGeometry x="935" y="340" width="40" height="20" as="geometry"/>
                </mxCell>
                <mxCell id="86" value="fileRef" style="text;html=1;align=center;verticalAlign=middle;resizable=0;points=[];autosize=1;strokeColor=none;fontSize=16;" parent="1" vertex="1">
                    <mxGeometry x="1145" y="340" width="60" height="20" as="geometry"/>
                </mxCell>
                <mxCell id="129" style="edgeStyle=none;html=1;exitX=1;exitY=0.5;exitDx=0;exitDy=0;dashed=1;fontSize=16;" parent="1" source="88" edge="1">
                    <mxGeometry relative="1" as="geometry">
                        <mxPoint x="1210" y="484" as="targetPoint"/>
                    </mxGeometry>
                </mxCell>
                <mxCell id="88" value="&lt;p class=&quot;p1&quot; style=&quot;margin: 0px; font-stretch: normal; font-size: 16px; line-height: normal; font-family: &amp;quot;helvetica neue&amp;quot;;&quot;&gt;PBXBuildFile&lt;/p&gt;" style="text;html=1;strokeColor=none;fillColor=none;align=center;verticalAlign=middle;whiteSpace=wrap;rounded=0;fontSize=16;" parent="1" vertex="1">
                    <mxGeometry x="985" y="464" width="180" height="40" as="geometry"/>
                </mxCell>
                <mxCell id="90" value="files" style="text;html=1;align=center;verticalAlign=middle;resizable=0;points=[];autosize=1;strokeColor=none;fontSize=16;" parent="1" vertex="1">
                    <mxGeometry x="955" y="460" width="40" height="20" as="geometry"/>
                </mxCell>
                <mxCell id="93" style="edgeStyle=none;html=1;exitX=1;exitY=0.5;exitDx=0;exitDy=0;entryX=0;entryY=1;entryDx=0;entryDy=0;fontSize=16;" parent="1" source="92" target="73" edge="1">
                    <mxGeometry relative="1" as="geometry">
                        <mxPoint x="740" y="410" as="sourcePoint"/>
                    </mxGeometry>
                </mxCell>
                <mxCell id="94" style="edgeStyle=none;html=1;exitX=1;exitY=0.5;exitDx=0;exitDy=0;entryX=0;entryY=0.5;entryDx=0;entryDy=0;fontSize=16;" parent="1" source="92" target="74" edge="1">
                    <mxGeometry relative="1" as="geometry">
                        <mxPoint x="740" y="410" as="sourcePoint"/>
                    </mxGeometry>
                </mxCell>
                <mxCell id="95" style="edgeStyle=none;html=1;exitX=1;exitY=0.5;exitDx=0;exitDy=0;entryX=0;entryY=0.5;entryDx=0;entryDy=0;fontSize=16;" parent="1" source="92" target="75" edge="1">
                    <mxGeometry relative="1" as="geometry">
                        <mxPoint x="740" y="410" as="sourcePoint"/>
                    </mxGeometry>
                </mxCell>
                <mxCell id="146" style="edgeStyle=none;html=1;exitX=1;exitY=0.5;exitDx=0;exitDy=0;entryX=0;entryY=0.5;entryDx=0;entryDy=0;fontSize=16;fontColor=#000000;" parent="1" source="92" target="145" edge="1">
                    <mxGeometry relative="1" as="geometry"/>
                </mxCell>
                <mxCell id="149" style="edgeStyle=none;html=1;exitX=1;exitY=0.5;exitDx=0;exitDy=0;entryX=0;entryY=0.5;entryDx=0;entryDy=0;fontSize=16;fontColor=#000000;" parent="1" source="92" target="148" edge="1">
                    <mxGeometry relative="1" as="geometry"/>
                </mxCell>
                <mxCell id="92" value="&lt;p class=&quot;p1&quot; style=&quot;margin: 0px ; font-stretch: normal ; font-size: 16px ; line-height: normal ; font-family: &amp;#34;helvetica neue&amp;#34;&quot;&gt;&lt;span style=&quot;font-size: 14px&quot;&gt;buildPhases&lt;/span&gt;&lt;br&gt;&lt;/p&gt;" style="text;html=1;strokeColor=none;fillColor=none;align=center;verticalAlign=middle;whiteSpace=wrap;rounded=0;fontSize=16;" parent="1" vertex="1">
                    <mxGeometry x="580" y="390" width="115" height="40" as="geometry"/>
                </mxCell>
                <mxCell id="103" style="edgeStyle=none;html=1;exitX=1;exitY=0.5;exitDx=0;exitDy=0;fontSize=15;" parent="1" source="97" target="102" edge="1">
                    <mxGeometry relative="1" as="geometry"/>
                </mxCell>
                <mxCell id="97" value="&lt;p class=&quot;p1&quot; style=&quot;margin: 0px; font-stretch: normal; font-size: 16px; line-height: normal; font-family: &amp;quot;helvetica neue&amp;quot;;&quot;&gt;PBXTargetDependency&lt;/p&gt;" style="text;html=1;strokeColor=none;fillColor=none;align=center;verticalAlign=middle;whiteSpace=wrap;rounded=0;fontSize=16;" parent="1" vertex="1">
                    <mxGeometry x="610" y="620" width="190" height="40" as="geometry"/>
                </mxCell>
                <mxCell id="101" value="&lt;p class=&quot;p1&quot; style=&quot;margin: 0px; font-stretch: normal; font-size: 15px; line-height: normal; font-family: &amp;quot;helvetica neue&amp;quot;;&quot;&gt;dependencies&lt;/p&gt;" style="text;html=1;align=center;verticalAlign=middle;resizable=0;points=[];autosize=1;strokeColor=none;fontSize=15;" parent="1" vertex="1">
                    <mxGeometry x="530" y="480" width="110" height="20" as="geometry"/>
                </mxCell>
                <mxCell id="127" style="edgeStyle=none;html=1;exitX=1;exitY=0.5;exitDx=0;exitDy=0;fontSize=16;dashed=1;" parent="1" source="102" edge="1">
                    <mxGeometry relative="1" as="geometry">
                        <mxPoint x="1040" y="640" as="targetPoint"/>
                    </mxGeometry>
                </mxCell>
                <mxCell id="102" value="&lt;p class=&quot;p1&quot; style=&quot;margin: 0px; font-stretch: normal; font-size: 16px; line-height: normal; font-family: &amp;quot;helvetica neue&amp;quot;;&quot;&gt;PBXNativeTarget&lt;/p&gt;" style="text;html=1;strokeColor=none;fillColor=none;align=center;verticalAlign=middle;whiteSpace=wrap;rounded=0;fontSize=16;" parent="1" vertex="1">
                    <mxGeometry x="855" y="620" width="140" height="40" as="geometry"/>
                </mxCell>
                <mxCell id="104" value="target" style="text;html=1;align=center;verticalAlign=middle;resizable=0;points=[];autosize=1;strokeColor=none;fontSize=15;" parent="1" vertex="1">
                    <mxGeometry x="800" y="610" width="50" height="20" as="geometry"/>
                </mxCell>
                <mxCell id="109" style="edgeStyle=none;html=1;exitX=1;exitY=0.5;exitDx=0;exitDy=0;entryX=0;entryY=0.5;entryDx=0;entryDy=0;fontSize=16;" parent="1" source="105" target="108" edge="1">
                    <mxGeometry relative="1" as="geometry"/>
                </mxCell>
                <mxCell id="105" value="&lt;p class=&quot;p1&quot; style=&quot;margin: 0px; font-stretch: normal; font-size: 16px; line-height: normal; font-family: &amp;quot;helvetica neue&amp;quot;;&quot;&gt;XCConfigurationList&lt;/p&gt;" style="text;html=1;strokeColor=none;fillColor=none;align=center;verticalAlign=middle;whiteSpace=wrap;rounded=0;fontSize=16;" parent="1" vertex="1">
                    <mxGeometry x="610" y="710" width="190" height="40" as="geometry"/>
                </mxCell>
                <mxCell id="107" value="&lt;p class=&quot;p1&quot; style=&quot;margin: 0px; font-stretch: normal; font-size: 15px; line-height: normal; font-family: &amp;quot;helvetica neue&amp;quot;;&quot;&gt;buildConfigurationList&lt;/p&gt;" style="text;html=1;align=center;verticalAlign=middle;resizable=0;points=[];autosize=1;strokeColor=none;fontSize=15;" parent="1" vertex="1">
                    <mxGeometry x="390" y="580" width="160" height="20" as="geometry"/>
                </mxCell>
                <mxCell id="156" style="edgeStyle=none;html=1;exitX=1;exitY=0.5;exitDx=0;exitDy=0;entryX=0;entryY=0.5;entryDx=0;entryDy=0;" edge="1" parent="1" source="108" target="155">
                    <mxGeometry relative="1" as="geometry"/>
                </mxCell>
                <mxCell id="108" value="&lt;p class=&quot;p1&quot; style=&quot;margin: 0px; font-stretch: normal; font-size: 16px; line-height: normal; font-family: &amp;quot;helvetica neue&amp;quot;;&quot;&gt;XCBuildConfiguration&lt;/p&gt;" style="text;html=1;strokeColor=none;fillColor=none;align=center;verticalAlign=middle;whiteSpace=wrap;rounded=0;fontSize=16;" parent="1" vertex="1">
                    <mxGeometry x="850" y="710" width="190" height="40" as="geometry"/>
                </mxCell>
                <mxCell id="110" value="&lt;p class=&quot;p1&quot; style=&quot;margin: 0px; font-stretch: normal; font-size: 15px; line-height: normal; font-family: &amp;quot;helvetica neue&amp;quot;;&quot;&gt;buildConfigurations&lt;/p&gt;" style="text;html=1;align=center;verticalAlign=middle;resizable=0;points=[];autosize=1;strokeColor=none;fontSize=15;" parent="1" vertex="1">
                    <mxGeometry x="745" y="690" width="150" height="20" as="geometry"/>
                </mxCell>
                <mxCell id="130" style="edgeStyle=none;html=1;exitX=1;exitY=0.5;exitDx=0;exitDy=0;dashed=1;fontSize=16;" parent="1" source="111" edge="1">
                    <mxGeometry relative="1" as="geometry">
                        <mxPoint x="960" y="140" as="targetPoint"/>
                    </mxGeometry>
                </mxCell>
                <mxCell id="111" value="PBXGroup" style="text;html=1;strokeColor=none;fillColor=none;align=center;verticalAlign=middle;whiteSpace=wrap;rounded=0;fontSize=16;" parent="1" vertex="1">
                    <mxGeometry x="775" y="120" width="140" height="40" as="geometry"/>
                </mxCell>
                <mxCell id="118" style="edgeStyle=none;html=1;exitX=1;exitY=0.5;exitDx=0;exitDy=0;fontSize=15;" parent="1" source="114" target="117" edge="1">
                    <mxGeometry relative="1" as="geometry"/>
                </mxCell>
                <mxCell id="120" style="edgeStyle=none;html=1;exitX=1;exitY=0.5;exitDx=0;exitDy=0;entryX=0;entryY=0.5;entryDx=0;entryDy=0;fontSize=16;" parent="1" source="114" target="119" edge="1">
                    <mxGeometry relative="1" as="geometry"/>
                </mxCell>
                <mxCell id="114" value="children" style="text;html=1;strokeColor=none;fillColor=none;align=center;verticalAlign=middle;whiteSpace=wrap;rounded=0;fontSize=16;" parent="1" vertex="1">
                    <mxGeometry x="580" y="175" width="60" height="30" as="geometry"/>
                </mxCell>
                <mxCell id="117" value="&lt;p class=&quot;p1&quot; style=&quot;margin: 0px; font-stretch: normal; font-size: 16px; line-height: normal; font-family: &amp;quot;helvetica neue&amp;quot;;&quot;&gt;PBXFileReference&lt;/p&gt;" style="text;html=1;strokeColor=none;fillColor=none;align=center;verticalAlign=middle;whiteSpace=wrap;rounded=0;fontSize=16;" parent="1" vertex="1">
                    <mxGeometry x="770" y="175" width="180" height="40" as="geometry"/>
                </mxCell>
                <mxCell id="122" style="edgeStyle=none;html=1;exitX=1;exitY=0.5;exitDx=0;exitDy=0;entryX=0;entryY=0.5;entryDx=0;entryDy=0;fontSize=16;" parent="1" edge="1">
                    <mxGeometry relative="1" as="geometry">
                        <mxPoint x="940" y="250" as="sourcePoint"/>
                        <mxPoint x="965" y="250" as="targetPoint"/>
                    </mxGeometry>
                </mxCell>
                <mxCell id="119" value="&lt;p class=&quot;p1&quot; style=&quot;margin: 0px; font-stretch: normal; font-size: 16px; line-height: normal; font-family: &amp;quot;helvetica neue&amp;quot;;&quot;&gt;PBXVariantGroup&lt;/p&gt;" style="text;html=1;strokeColor=none;fillColor=none;align=center;verticalAlign=middle;whiteSpace=wrap;rounded=0;fontSize=16;" parent="1" vertex="1">
                    <mxGeometry x="770" y="230" width="180" height="40" as="geometry"/>
                </mxCell>
                <mxCell id="121" value="&lt;p class=&quot;p1&quot; style=&quot;margin: 0px; font-stretch: normal; font-size: 16px; line-height: normal; font-family: &amp;quot;helvetica neue&amp;quot;;&quot;&gt;PBXFileReference&lt;/p&gt;" style="text;html=1;strokeColor=none;fillColor=none;align=center;verticalAlign=middle;whiteSpace=wrap;rounded=0;fontSize=16;" parent="1" vertex="1">
                    <mxGeometry x="975" y="230" width="135" height="40" as="geometry"/>
                </mxCell>
                <mxCell id="128" style="edgeStyle=none;html=1;exitX=1;exitY=0.5;exitDx=0;exitDy=0;dashed=1;fontSize=16;" parent="1" source="123" edge="1">
                    <mxGeometry relative="1" as="geometry">
                        <mxPoint x="1210" y="420" as="targetPoint"/>
                    </mxGeometry>
                </mxCell>
                <mxCell id="123" value="&lt;p class=&quot;p1&quot; style=&quot;margin: 0px; font-stretch: normal; font-size: 16px; line-height: normal; font-family: &amp;quot;helvetica neue&amp;quot;;&quot;&gt;PBXBuildFile&lt;/p&gt;" style="text;html=1;strokeColor=none;fillColor=none;align=center;verticalAlign=middle;whiteSpace=wrap;rounded=0;fontSize=16;" parent="1" vertex="1">
                    <mxGeometry x="985" y="400" width="180" height="40" as="geometry"/>
                </mxCell>
                <mxCell id="135" style="edgeStyle=none;html=1;exitX=1;exitY=0.5;exitDx=0;exitDy=0;dashed=1;fontSize=16;" parent="1" source="132" edge="1">
                    <mxGeometry relative="1" as="geometry">
                        <mxPoint x="610" y="830" as="targetPoint"/>
                    </mxGeometry>
                </mxCell>
                <mxCell id="132" value="&lt;p class=&quot;p1&quot; style=&quot;margin: 0px; font-stretch: normal; font-size: 16px; line-height: normal; font-family: &amp;quot;helvetica neue&amp;quot;;&quot;&gt;XCConfigurationList&lt;/p&gt;" style="text;html=1;strokeColor=none;fillColor=none;align=center;verticalAlign=middle;whiteSpace=wrap;rounded=0;fontSize=16;" parent="1" vertex="1">
                    <mxGeometry x="370" y="810" width="190" height="40" as="geometry"/>
                </mxCell>
                <mxCell id="134" value="&lt;p class=&quot;p1&quot; style=&quot;margin: 0px; font-stretch: normal; font-size: 15px; line-height: normal; font-family: &amp;quot;helvetica neue&amp;quot;;&quot;&gt;buildConfigurationList&lt;/p&gt;" style="text;html=1;align=center;verticalAlign=middle;resizable=0;points=[];autosize=1;strokeColor=none;fontSize=15;" parent="1" vertex="1">
                    <mxGeometry x="160" y="474" width="160" height="20" as="geometry"/>
                </mxCell>
                <mxCell id="137" value="rootObject" style="text;html=1;align=center;verticalAlign=middle;resizable=0;points=[];autosize=1;strokeColor=none;fontSize=15;fontColor=#000000;" parent="1" vertex="1">
                    <mxGeometry x="170" y="230" width="80" height="20" as="geometry"/>
                </mxCell>
                <mxCell id="143" style="edgeStyle=none;html=1;exitX=1;exitY=0.5;exitDx=0;exitDy=0;fontSize=15;fontColor=#000000;" parent="1" source="138" target="142" edge="1">
                    <mxGeometry relative="1" as="geometry"/>
                </mxCell>
                <mxCell id="138" value="&lt;p class=&quot;p1&quot; style=&quot;margin: 0px; font-stretch: normal; font-size: 16px; line-height: normal; font-family: &amp;quot;helvetica neue&amp;quot;;&quot;&gt;PBXAggregateTarget&lt;/p&gt;" style="text;html=1;strokeColor=none;fillColor=none;align=center;verticalAlign=middle;whiteSpace=wrap;rounded=0;fontSize=16;" parent="1" vertex="1">
                    <mxGeometry x="480" y="290" width="160" height="40" as="geometry"/>
                </mxCell>
                <mxCell id="140" style="edgeStyle=none;html=1;exitX=1;exitY=0.5;exitDx=0;exitDy=0;entryX=0;entryY=0.5;entryDx=0;entryDy=0;fontSize=15;fontColor=#000000;" parent="1" source="139" target="138" edge="1">
                    <mxGeometry relative="1" as="geometry"/>
                </mxCell>
                <mxCell id="139" value="&lt;p class=&quot;p1&quot; style=&quot;margin: 0px; font-stretch: normal; font-size: 15px; line-height: normal; font-family: &amp;quot;helvetica neue&amp;quot;;&quot;&gt;targets&lt;/p&gt;" style="text;html=1;strokeColor=none;fillColor=none;align=center;verticalAlign=middle;whiteSpace=wrap;rounded=0;fontSize=15;" parent="1" vertex="1">
                    <mxGeometry x="330" y="300" width="80" height="20" as="geometry"/>
                </mxCell>
                <mxCell id="144" style="edgeStyle=none;html=1;exitX=1;exitY=0.5;exitDx=0;exitDy=0;fontSize=15;fontColor=#000000;dashed=1;" parent="1" source="142" edge="1">
                    <mxGeometry relative="1" as="geometry">
                        <mxPoint x="910" y="310" as="targetPoint"/>
                    </mxGeometry>
                </mxCell>
                <mxCell id="142" value="&lt;p class=&quot;p1&quot; style=&quot;margin: 0px; font-stretch: normal; font-size: 16px; line-height: normal; font-family: &amp;quot;helvetica neue&amp;quot;;&quot;&gt;XCConfigurationList&lt;/p&gt;" style="text;html=1;strokeColor=none;fillColor=none;align=center;verticalAlign=middle;whiteSpace=wrap;rounded=0;fontSize=16;" parent="1" vertex="1">
                    <mxGeometry x="670" y="290" width="190" height="40" as="geometry"/>
                </mxCell>
                <mxCell id="145" value="&lt;p class=&quot;p1&quot; style=&quot;margin: 0px; font-stretch: normal; font-size: 16px; line-height: normal; font-family: &amp;quot;helvetica neue&amp;quot;;&quot;&gt;PBXShellScriptBuildPhase&lt;/p&gt;" style="text;html=1;strokeColor=none;fillColor=none;align=center;verticalAlign=middle;whiteSpace=wrap;rounded=0;fontSize=16;" parent="1" vertex="1">
                    <mxGeometry x="745" y="510" width="210" height="40" as="geometry"/>
                </mxCell>
                <mxCell id="152" style="edgeStyle=none;html=1;exitX=1;exitY=0.5;exitDx=0;exitDy=0;entryX=0;entryY=0.5;entryDx=0;entryDy=0;fontSize=16;fontColor=#000000;" parent="1" source="148" target="150" edge="1">
                    <mxGeometry relative="1" as="geometry"/>
                </mxCell>
                <mxCell id="148" value="&lt;p class=&quot;p1&quot; style=&quot;margin: 0px; font-stretch: normal; font-size: 16px; line-height: normal; font-family: &amp;quot;helvetica neue&amp;quot;;&quot;&gt;PBXHeadersBuildPhase&lt;/p&gt;" style="text;html=1;strokeColor=none;fillColor=none;align=center;verticalAlign=middle;whiteSpace=wrap;rounded=0;fontSize=16;" parent="1" vertex="1">
                    <mxGeometry x="740" y="560" width="210" height="40" as="geometry"/>
                </mxCell>
                <mxCell id="154" style="edgeStyle=none;html=1;exitX=1;exitY=0.5;exitDx=0;exitDy=0;fontSize=16;fontColor=#000000;dashed=1;" parent="1" source="150" edge="1">
                    <mxGeometry relative="1" as="geometry">
                        <mxPoint x="1220" y="580" as="targetPoint"/>
                    </mxGeometry>
                </mxCell>
                <mxCell id="150" value="&lt;p class=&quot;p1&quot; style=&quot;margin: 0px; font-stretch: normal; font-size: 16px; line-height: normal; font-family: &amp;quot;helvetica neue&amp;quot;;&quot;&gt;PBXBuildFile&lt;/p&gt;" style="text;html=1;strokeColor=none;fillColor=none;align=center;verticalAlign=middle;whiteSpace=wrap;rounded=0;fontSize=16;" parent="1" vertex="1">
                    <mxGeometry x="989" y="560" width="180" height="40" as="geometry"/>
                </mxCell>
                <mxCell id="153" value="files" style="text;html=1;align=center;verticalAlign=middle;resizable=0;points=[];autosize=1;strokeColor=none;fontSize=16;" parent="1" vertex="1">
                    <mxGeometry x="945" y="560" width="40" height="20" as="geometry"/>
                </mxCell>
                <mxCell id="155" value="&lt;p class=&quot;p1&quot; style=&quot;margin: 0px; font-stretch: normal; font-size: 16px; line-height: normal; font-family: &amp;quot;helvetica neue&amp;quot;;&quot;&gt;PBXFileReference&lt;/p&gt;" style="text;html=1;strokeColor=none;fillColor=none;align=center;verticalAlign=middle;whiteSpace=wrap;rounded=0;fontSize=16;" vertex="1" parent="1">
                    <mxGeometry x="1090" y="710" width="135" height="40" as="geometry"/>
                </mxCell>
                <mxCell id="157" value="&lt;p class=&quot;p1&quot; style=&quot;margin: 0px; font-stretch: normal; font-size: 15px; line-height: normal; font-family: &amp;quot;helvetica neue&amp;quot;;&quot;&gt;baseConfigurationReference&lt;/p&gt;" style="text;html=1;align=center;verticalAlign=middle;resizable=0;points=[];autosize=1;strokeColor=none;fontSize=15;" vertex="1" parent="1">
                    <mxGeometry x="959" y="700" width="210" height="20" as="geometry"/>
                </mxCell>
            </root>
        </mxGraphModel>
    </diagram>
</mxfile>